# xmcd
#
# Track frame offsets: 
#        150
#        3271
#        23538
#        43599
#        64007
#        69164
#        87504
#        106976
#        121793
#        141129
#        157682
#        173735
#        177857
#        199721
#
# Disc length: 3181 seconds
#
# Revision: 0
# Processed by: cddbd v1.5.2PL0 Copyright (c) Steve Scherf et al.
# Submitted via: ExactAudioCopy v1.0b4
#
DISCID=a20c6b0e
DTITLE=Amy Ray - Holler
DYEAR=1900
DGENRE=
TTITLE0=Gracie's Dawn (Prelude)
TTITLE1=Sure Feels Good Anyway
TTITLE2=Dadgum Down
TTITLE3=Last Taxi Fare
TTITLE4=Old Lady Interlude
TTITLE5=Sparrow's Boogie
TTITLE6=Oh City Man
TTITLE7=Fine With The Dark
TTITLE8=Tonight I'm Paying The Rent
TTITLE9=Holler
TTITLE10=Jesus Was A Walking Man
TTITLE11=Sparrow's Lullaby
TTITLE12=Bondsman (Evening In Missouri)
TTITLE13=Didn't Know A Damn Thing
EXTD=
EXTT0=
EXTT1=
EXTT2=
EXTT3=
EXTT4=
EXTT5=
EXTT6=
EXTT7=
EXTT8=
EXTT9=
EXTT10=
EXTT11=
EXTT12=
EXTT13=
PLAYORDER=
